<svg xmlns="http://www.w3.org/2000/svg"><symbol id="play" viewBox="0 0 24 24"><path d="M5 5a2 2 0 0 1 3.008-1.728l11.997 6.998a2 2 0 0 1 .003 3.458l-12 7A2 2 0 0 1 5 19z"/></symbol><symbol id="pause" viewBox="0 0 24 24"><rect x="14" y="3" width="5" height="18" rx="1"/><rect x="5" y="3" width="5" height="18" rx="1"/></symbol><symbol id="arrow-up-right" viewBox="0 0 24 24"><path d="M7 7h10v10"/><path d="M7 17 17 7"/></symbol><symbol id="arrow-down" viewBox="0 0 24 24"><path d="M12 5v14"/><path d="m19 12-7 7-7-7"/></symbol><symbol id="arrow-up" viewBox="0 0 24 24"><path d="m5 12 7-7 7 7"/><path d="M12 19V5"/></symbol><symbol id="arrow-right" viewBox="0 0 24 24"><path d="M5 12h14"/><path d="m12 5 7 7-7 7"/></symbol><symbol id="restart" viewBox="0 0 24 24"><path d="M3 12a9 9 0 1 0 9-9 9.75 9.75 0 0 0-6.74 2.74L3 8"/><path d="M3 3v5h5"/></symbol><symbol id="copy" viewBox="0 0 24 24"><rect width="14" height="14" x="8" y="8" rx="2" ry="2"/><path d="M4 16c-1.1 0-2-.9-2-2V4c0-1.1.9-2 2-2h10c1.1 0 2 .9 2 2"/></symbol><symbol id="check" viewBox="0 0 24 24"><path d="M20 6 9 17l-5-5"/></symbol><symbol id="plus" viewBox="0 0 24 24"><path d="M5 12h14"/><path d="M12 5v14"/></symbol><symbol id="paper" viewBox="0 0 24 24"><path d="M6 22a2 2 0 0 1-2-2V4a2 2 0 0 1 2-2h8a2.4 2.4 0 0 1 1.704.706l3.588 3.588A2.4 2.4 0 0 1 20 8v12a2 2 0 0 1-2 2z"/><path d="M14 2v5a1 1 0 0 0 1 1h5"/><path d="M10 9H8"/><path d="M16 13H8"/><path d="M16 17H8"/></symbol><symbol id="repeat" viewBox="0 0 24 24"><path d="m2 9 3-3 3 3"/><path d="M13 18H7a2 2 0 0 1-2-2V6"/><path d="m22 15-3 3-3-3"/><path d="M11 6h6a2 2 0 0 1 2 2v10"/></symbol></svg>